# xmcd
#
# Track frame offsets:
# 150
# 16266
# 35605
# 49742
# 65651
# 81881
# 92971
# 107707
# 125393
# 139756
# 151465
# 160282
#
# Disc length: 2401 seconds
#
#
# Revision: 0
# Processed by: cddbd v1.5.2PL0 Copyright (c) Steve Scherf et al.
# Submitted via: FreeRIP 2.951 
#
DISCID=9f095f0c
DTITLE=Michael Juan Nunez - Michael Juan Nunez
DYEAR=2003
DGENRE=Blues
TTITLE0=Corn on the Cob
TTITLE1=Woman
TTITLE2=King Bee
TTITLE3=Good Life
TTITLE4=Come on in My Kitchen
TTITLE5=Pixie and Dixie
TTITLE6=Stagger Lee
TTITLE7=Bayou Tigre
TTITLE8=Balance
TTITLE9=Summer Noodle
TTITLE10=Shack Em' On Down
TTITLE11=Eternity
EXTD=
EXTT0=
EXTT1=
EXTT2=
EXTT3=
EXTT4=
EXTT5=
EXTT6=
EXTT7=
EXTT8=
EXTT9=
EXTT10=
EXTT11=
PLAYORDER=
